<svg xmlns="http://www.w3.org/2000/svg" width="42" height="42.017" viewBox="0 0 42 42.017">
  <path id="Path_90" data-name="Path 90" d="M41.215,41.231a2.685,2.685,0,0,1-2.018.783,71.132,71.132,0,0,1-7.268-.776A96.919,96.919,0,0,1,17.493,37.96a47.786,47.786,0,0,1-7.008-2.7,19.218,19.218,0,0,1-5.362-3.565l-.033-.035a18.929,18.929,0,0,1-4.783-16.3A18.652,18.652,0,0,1,2.7,9.1c.411-.692.984-1.5,28.806,22.416C7.478,3.79,8.166,3.292,9.051,2.739A18.321,18.321,0,0,1,16.382.149,18.822,18.822,0,0,1,18.746,0h0a18.866,18.866,0,0,1,8.8,2.177,16.374,16.374,0,0,1,4.437,3.288A23.213,23.213,0,0,1,35.75,11.58a71.259,71.259,0,0,1,4.337,14.281A78.12,78.12,0,0,1,42,39.213,2.683,2.683,0,0,1,41.215,41.231Z" fill="#aeb4a6"/>
</svg>
