<svg width="26" height="26" viewBox="0 0 26 26" fill="none" xmlns="http://www.w3.org/2000/svg">
<path d="M24.7089 25.0325C24.552 25.1892 24.3642 25.3116 24.1574 25.3918C23.9506 25.472 23.7294 25.5083 23.5078 25.4984C22.0588 25.4187 20.6148 25.2646 19.1817 25.0367C16.2719 24.6065 13.3993 23.9544 10.5891 23.0863C9.15861 22.661 7.76386 22.1238 6.41773 21.4798C5.24211 20.9572 4.16311 20.24 3.22615 19.3586L3.20651 19.3378C2.00893 18.0546 1.12786 16.5095 0.633568 14.8257C0.13928 13.1418 0.0454493 11.3658 0.359561 9.63923C0.605491 8.32187 1.08807 7.05994 1.78393 5.91452C2.02856 5.50277 2.36963 5.02201 18.9299 19.2521C4.6279 2.75506 5.03741 2.45875 5.56418 2.12971C6.89166 1.30987 8.37969 0.78435 9.92776 0.588655C10.3945 0.529601 10.8644 0.499991 11.3349 0.5V0.5C13.1602 0.499798 14.9581 0.944405 16.5728 1.79532C17.5576 2.29327 18.4506 2.95479 19.2138 3.75168C20.1455 4.84087 20.902 6.06837 21.456 7.39012C22.6117 10.1244 23.4769 12.9724 24.0375 15.8873C24.6455 18.4977 25.0265 21.1558 25.1762 23.8318C25.186 24.0534 25.1495 24.2746 25.0691 24.4814C24.9886 24.6881 24.866 24.8758 24.7089 25.0325V25.0325Z" fill="white"/>
</svg>
